<mxfile host="app.diagrams.net" agent="Mozilla/5.0 (Windows NT 10.0; Win64; x64) AppleWebKit/537.36 (KHTML, like Gecko) Chrome/140.0.0.0 Safari/537.36 Edg/140.0.0.0" version="28.2.4">
  <diagram id="C5RBs43oDa-KdzZeNtuy" name="Page-1">
    <mxGraphModel dx="741" dy="500" grid="1" gridSize="10" guides="1" tooltips="1" connect="1" arrows="1" fold="1" page="1" pageScale="1" pageWidth="1920" pageHeight="1200" math="0" shadow="0">
      <root>
        <object label="" id="WIyWlLk6GJQsqaUBKTNV-0">
          <mxCell />
        </object>
        <mxCell id="WIyWlLk6GJQsqaUBKTNV-1" parent="WIyWlLk6GJQsqaUBKTNV-0" />
        <mxCell id="7HgC23ZyDXRJHsqai-rV-2" value="" style="edgeStyle=none;curved=1;rounded=0;orthogonalLoop=1;jettySize=auto;html=1;strokeColor=#A8201A;fontSize=12;fontColor=#143642;startSize=8;endSize=8;fillColor=#FAE5C7;" edge="1" parent="WIyWlLk6GJQsqaUBKTNV-1" source="7HgC23ZyDXRJHsqai-rV-0" target="7HgC23ZyDXRJHsqai-rV-1">
          <mxGeometry relative="1" as="geometry" />
        </mxCell>
        <mxCell id="7HgC23ZyDXRJHsqai-rV-8" style="edgeStyle=none;curved=1;rounded=0;orthogonalLoop=1;jettySize=auto;html=1;entryX=0.5;entryY=1;entryDx=0;entryDy=0;strokeColor=#A8201A;fontSize=12;fontColor=#143642;startSize=8;endSize=8;fillColor=#FAE5C7;" edge="1" parent="WIyWlLk6GJQsqaUBKTNV-1" source="7HgC23ZyDXRJHsqai-rV-0" target="7HgC23ZyDXRJHsqai-rV-3">
          <mxGeometry relative="1" as="geometry" />
        </mxCell>
        <mxCell id="7HgC23ZyDXRJHsqai-rV-10" value="" style="edgeStyle=none;curved=1;rounded=0;orthogonalLoop=1;jettySize=auto;html=1;strokeColor=#A8201A;fontSize=12;fontColor=#143642;startSize=8;endSize=8;fillColor=#FAE5C7;" edge="1" parent="WIyWlLk6GJQsqaUBKTNV-1" source="7HgC23ZyDXRJHsqai-rV-0" target="7HgC23ZyDXRJHsqai-rV-9">
          <mxGeometry relative="1" as="geometry" />
        </mxCell>
        <mxCell id="7HgC23ZyDXRJHsqai-rV-0" value="&lt;font data-font-src=&quot;https://fonts.googleapis.com/css?family=%E9%BB%91%E4%BD%93&quot; face=&quot;黑体&quot; style=&quot;font-size: 16px;&quot;&gt;氟化钙柱面微透镜阵列微磨削&lt;/font&gt;" style="rounded=1;whiteSpace=wrap;html=1;labelBackgroundColor=none;fillColor=#FAE5C7;strokeColor=#0F8B8D;fontColor=#143642;" vertex="1" parent="WIyWlLk6GJQsqaUBKTNV-1">
          <mxGeometry x="354" y="260" width="120" height="60" as="geometry" />
        </mxCell>
        <mxCell id="7HgC23ZyDXRJHsqai-rV-4" value="" style="edgeStyle=none;curved=1;rounded=0;orthogonalLoop=1;jettySize=auto;html=1;strokeColor=#A8201A;fontSize=12;fontColor=#143642;startSize=8;endSize=8;fillColor=#FAE5C7;" edge="1" parent="WIyWlLk6GJQsqaUBKTNV-1" source="7HgC23ZyDXRJHsqai-rV-1" target="7HgC23ZyDXRJHsqai-rV-3">
          <mxGeometry relative="1" as="geometry" />
        </mxCell>
        <mxCell id="7HgC23ZyDXRJHsqai-rV-1" value="&lt;font style=&quot;font-size: 16px;&quot;&gt;砂轮整形&lt;/font&gt;" style="rounded=1;whiteSpace=wrap;html=1;fillColor=#FAE5C7;strokeColor=#0F8B8D;fontColor=#143642;labelBackgroundColor=none;" vertex="1" parent="WIyWlLk6GJQsqaUBKTNV-1">
          <mxGeometry x="270" y="160" width="120" height="60" as="geometry" />
        </mxCell>
        <mxCell id="7HgC23ZyDXRJHsqai-rV-3" value="&lt;font style=&quot;font-size: 16px;&quot;&gt;砂轮修锐&lt;/font&gt;" style="whiteSpace=wrap;html=1;fillColor=#FAE5C7;strokeColor=#0F8B8D;fontColor=#143642;rounded=1;labelBackgroundColor=none;" vertex="1" parent="WIyWlLk6GJQsqaUBKTNV-1">
          <mxGeometry x="420" y="160" width="120" height="60" as="geometry" />
        </mxCell>
        <mxCell id="7HgC23ZyDXRJHsqai-rV-5" value="&lt;font style=&quot;font-size: 16px;&quot;&gt;确定砂轮&lt;/font&gt;" style="whiteSpace=wrap;html=1;fillColor=#FAE5C7;strokeColor=#0F8B8D;fontColor=#143642;rounded=1;labelBackgroundColor=none;" vertex="1" parent="WIyWlLk6GJQsqaUBKTNV-1">
          <mxGeometry x="354" y="40" width="120" height="60" as="geometry" />
        </mxCell>
        <mxCell id="7HgC23ZyDXRJHsqai-rV-9" value="&lt;font style=&quot;font-size: 16px;&quot;&gt;磨削效果&lt;/font&gt;" style="whiteSpace=wrap;html=1;fillColor=#FAE5C7;strokeColor=#0F8B8D;fontColor=#143642;rounded=1;labelBackgroundColor=none;align=center;verticalAlign=middle;fontFamily=Helvetica;fontSize=12;" vertex="1" parent="WIyWlLk6GJQsqaUBKTNV-1">
          <mxGeometry x="354" y="360" width="120" height="60" as="geometry" />
        </mxCell>
        <mxCell id="7HgC23ZyDXRJHsqai-rV-12" value="&lt;font style=&quot;font-size: 16px;&quot;&gt;准备工作&lt;/font&gt;" style="rounded=0;whiteSpace=wrap;html=1;strokeColor=#2D7600;fontColor=#ffffff;fillColor=#60a917;" vertex="1" parent="WIyWlLk6GJQsqaUBKTNV-1">
          <mxGeometry x="40" y="40" width="120" height="60" as="geometry" />
        </mxCell>
        <mxCell id="7HgC23ZyDXRJHsqai-rV-13" value="&lt;font style=&quot;font-size: 16px;&quot;&gt;确定工件材料&lt;/font&gt;" style="whiteSpace=wrap;html=1;fillColor=#FAE5C7;strokeColor=#0F8B8D;fontColor=#143642;rounded=1;labelBackgroundColor=none;" vertex="1" parent="WIyWlLk6GJQsqaUBKTNV-1">
          <mxGeometry x="200" y="40" width="120" height="60" as="geometry" />
        </mxCell>
        <mxCell id="7HgC23ZyDXRJHsqai-rV-14" value="&lt;font style=&quot;font-size: 16px;&quot;&gt;预期成果目标&lt;/font&gt;" style="whiteSpace=wrap;html=1;fillColor=#a20025;strokeColor=#6F0000;fontColor=#ffffff;rounded=1;labelBackgroundColor=none;" vertex="1" parent="WIyWlLk6GJQsqaUBKTNV-1">
          <mxGeometry x="520" y="40" width="120" height="60" as="geometry" />
        </mxCell>
      </root>
    </mxGraphModel>
  </diagram>
</mxfile>
